<svg width="36" height="36" viewBox="0 0 36 36" fill="none" xmlns="http://www.w3.org/2000/svg">
<path d="M4.5 2.25H2.25V31.5C2.25 32.0967 2.48705 32.669 2.90901 33.091C3.33097 33.5129 3.90326 33.75 4.5 33.75H33.75V31.5H4.5V2.25Z" fill="white"/>
<path d="M33.75 10.125H25.875V12.375H29.9137L21.375 20.9137L16.5487 16.0763C16.4442 15.9708 16.3197 15.8871 16.1826 15.83C16.0456 15.7729 15.8985 15.7435 15.75 15.7435C15.6015 15.7435 15.4544 15.7729 15.3174 15.83C15.1803 15.8871 15.0558 15.9708 14.9513 16.0763L6.75 24.2887L8.33625 25.875L15.75 18.4613L20.5763 23.2987C20.6808 23.4042 20.8053 23.4879 20.9424 23.545C21.0794 23.6021 21.2265 23.6315 21.375 23.6315C21.5235 23.6315 21.6706 23.6021 21.8076 23.545C21.9447 23.4879 22.0692 23.4042 22.1737 23.2987L31.5 13.9612V18H33.75V10.125Z" fill="white"/>
</svg>
