<svg width="44" height="44" viewBox="0 0 44 44" fill="none" xmlns="http://www.w3.org/2000/svg">
<path fill-rule="evenodd" clip-rule="evenodd" d="M41.25 21.9998C41.25 21.6351 41.1051 21.2854 40.8473 21.0275C40.5894 20.7697 40.2397 20.6248 39.875 20.6248H7.44425L16.0985 11.9733C16.3567 11.7151 16.5017 11.3649 16.5017 10.9998C16.5017 10.6347 16.3567 10.2845 16.0985 10.0263C15.8403 9.7681 15.4901 9.62305 15.125 9.62305C14.7599 9.62305 14.4097 9.7681 14.1515 10.0263L3.1515 21.0263C3.02345 21.154 2.92186 21.3057 2.85254 21.4728C2.78322 21.6398 2.74754 21.8189 2.74754 21.9998C2.74754 22.1806 2.78322 22.3597 2.85254 22.5268C2.92186 22.6938 3.02345 22.8456 3.1515 22.9733L14.1515 33.9733C14.4097 34.2315 14.7599 34.3765 15.125 34.3765C15.4901 34.3765 15.8403 34.2315 16.0985 33.9733C16.3567 33.7151 16.5017 33.3649 16.5017 32.9998C16.5017 32.6346 16.3567 32.2845 16.0985 32.0263L7.44425 23.3748H39.875C40.2397 23.3748 40.5894 23.2299 40.8473 22.9721C41.1051 22.7142 41.25 22.3645 41.25 21.9998Z" fill="#2D7068"/>
</svg>
