<svg width="64" height="64" viewBox="0 0 64 64" fill="none" xmlns="http://www.w3.org/2000/svg">
<path fill-rule="evenodd" clip-rule="evenodd" d="M4 32.0005C4 31.47 4.21071 30.9613 4.58579 30.5862C4.96086 30.2112 5.46957 30.0005 6 30.0005H53.172L40.584 17.4165C40.2085 17.0409 39.9975 16.5316 39.9975 16.0005C39.9975 15.4693 40.2085 14.96 40.584 14.5845C40.9595 14.2089 41.4689 13.9979 42 13.9979C42.5311 13.9979 43.0405 14.2089 43.416 14.5845L59.416 30.5844C59.6023 30.7702 59.75 30.9909 59.8508 31.2339C59.9517 31.4769 60.0036 31.7374 60.0036 32.0005C60.0036 32.2635 59.9517 32.524 59.8508 32.767C59.75 33.01 59.6023 33.2307 59.416 33.4165L43.416 49.4165C43.0405 49.792 42.5311 50.003 42 50.003C41.4689 50.003 40.9595 49.792 40.584 49.4165C40.2085 49.0409 39.9975 48.5316 39.9975 48.0005C39.9975 47.4693 40.2085 46.96 40.584 46.5844L53.172 34.0005H6C5.46957 34.0005 4.96086 33.7897 4.58579 33.4147C4.21071 33.0396 4 32.5309 4 32.0005Z" fill="#2D7068"/>
</svg>
