<svg width="100" height="100" viewBox="0 0 100 100" fill="none" xmlns="http://www.w3.org/2000/svg">
<path d="M100 50C100 36.7392 94.7322 24.0215 85.3553 14.6447C75.9785 5.26784 63.2608 0 50 0C36.7392 0 24.0215 5.26784 14.6447 14.6447C5.26784 24.0215 0 36.7392 0 50C0 63.2608 5.26784 75.9785 14.6447 85.3553C24.0215 94.7322 36.7392 100 50 100C63.2608 100 75.9785 94.7322 85.3553 85.3553C94.7322 75.9785 100 63.2608 100 50ZM53.125 71.875C53.125 72.7038 52.7958 73.4987 52.2097 74.0847C51.6237 74.6708 50.8288 75 50 75C49.1712 75 48.3763 74.6708 47.7903 74.0847C47.2042 73.4987 46.875 72.7038 46.875 71.875V35.6687L33.4625 49.0875C32.8757 49.6743 32.0798 50.0039 31.25 50.0039C30.4202 50.0039 29.6243 49.6743 29.0375 49.0875C28.4507 48.5007 28.1211 47.7048 28.1211 46.875C28.1211 46.0452 28.4507 45.2493 29.0375 44.6625L47.7875 25.9125C48.0778 25.6215 48.4226 25.3906 48.8023 25.233C49.1819 25.0755 49.589 24.9944 50 24.9944C50.411 24.9944 50.8181 25.0755 51.1977 25.233C51.5774 25.3906 51.9222 25.6215 52.2125 25.9125L70.9625 44.6625C71.5493 45.2493 71.8789 46.0452 71.8789 46.875C71.8789 47.7048 71.5493 48.5007 70.9625 49.0875C70.3757 49.6743 69.5798 50.0039 68.75 50.0039C67.9202 50.0039 67.1243 49.6743 66.5375 49.0875L53.125 35.6687V71.875Z" fill="white"/>
</svg>
