<svg width="37" height="36" viewBox="0 0 37 36" fill="none" xmlns="http://www.w3.org/2000/svg">
<path d="M11.5625 25.1715L13.4375 22.8285L7.40155 18L13.4375 13.1715L11.5625 10.8285L4.06255 16.8285C3.88682 16.9691 3.74495 17.1473 3.64746 17.3501C3.54996 17.5529 3.49934 17.775 3.49934 18C3.49934 18.225 3.54996 18.4472 3.64746 18.65C3.74495 18.8527 3.88682 19.031 4.06255 19.1715L11.5625 25.1715ZM25.4375 10.8285L23.5625 13.1715L29.5985 18L23.5625 22.8285L25.4375 25.1715L32.9375 19.1715C33.1133 19.031 33.2551 18.8527 33.3526 18.65C33.4501 18.4472 33.5007 18.225 33.5007 18C33.5007 17.775 33.4501 17.5529 33.3526 17.3501C33.2551 17.1473 33.1133 16.9691 32.9375 16.8285L25.4375 10.8285ZM22.964 4.82403L16.964 31.824L14.0345 31.173L20.0345 4.17303L22.964 4.82403Z" fill="white"/>
</svg>
