<svg width="51" height="50" viewBox="0 0 51 50" fill="none" xmlns="http://www.w3.org/2000/svg">
<path d="M10.4999 36.25V27.9125L20.5199 33.665C22.0353 34.5353 23.7524 34.9932 25.4999 34.9932C27.2474 34.9932 28.9645 34.5353 30.4799 33.665L40.4999 27.915V36.25C40.5002 36.4143 40.4681 36.577 40.4055 36.7288C40.3429 36.8807 40.2509 37.0187 40.1349 37.135L40.1299 37.1375L40.1249 37.145L40.1074 37.16L40.0499 37.215L39.8499 37.4C39.6749 37.5525 39.4249 37.7675 39.0974 38.02C38.1994 38.7095 37.2453 39.3225 36.2449 39.8525C32.9363 41.6076 29.2452 42.5179 25.4999 42.5025C21.7546 42.5179 18.0635 41.6076 14.7549 39.8525C13.7554 39.3224 12.802 38.7094 11.9049 38.02C11.575 37.7657 11.2564 37.4971 10.9499 37.215L10.8924 37.16C10.7699 37.0419 10.6721 36.9007 10.6047 36.7445C10.5373 36.5882 10.5017 36.4201 10.4999 36.25V36.25Z" fill="white"/>
<path d="M47.3726 21.085L29.2351 31.4975C28.0985 32.1502 26.8107 32.4937 25.5001 32.4937C24.1894 32.4937 22.9017 32.1502 21.7651 31.4975L5.50009 22.16V33.75C5.50009 34.0815 5.3684 34.3995 5.13398 34.6339C4.89955 34.8683 4.58161 35 4.25009 35C3.91857 35 3.60063 34.8683 3.36621 34.6339C3.13179 34.3995 3.00009 34.0815 3.00009 33.75V20C2.99997 19.7746 3.06077 19.5534 3.17608 19.3598C3.29138 19.1662 3.45689 19.0073 3.65509 18.9L21.7651 8.50251C22.9014 7.84908 24.1893 7.50519 25.5001 7.50519C26.8109 7.50519 28.0988 7.84908 29.2351 8.50251L47.3726 18.9175C47.5632 19.0271 47.7215 19.1849 47.8316 19.3752C47.9417 19.5655 47.9997 19.7814 47.9997 20.0013C47.9997 20.2211 47.9417 20.437 47.8316 20.6273C47.7215 20.8176 47.5632 20.9755 47.3726 21.085V21.085Z" fill="white"/>
</svg>
