<svg width="51" height="50" viewBox="0 0 51 50" fill="none" xmlns="http://www.w3.org/2000/svg">
<path d="M21.7651 8.50258C22.9017 7.84987 24.1894 7.50641 25.5001 7.50641C26.8107 7.50641 28.0985 7.84987 29.2351 8.50258L47.3726 18.9176C47.5632 19.0271 47.7215 19.185 47.8316 19.3753C47.9417 19.5655 47.9997 19.7815 47.9997 20.0013C47.9997 20.2212 47.9417 20.4371 47.8316 20.6274C47.7215 20.8177 47.5632 20.9755 47.3726 21.0851L40.5001 25.0301V36.2501C40.5004 36.4143 40.4683 36.577 40.4057 36.7289C40.343 36.8808 40.2511 37.0188 40.1351 37.1351L40.1301 37.1376L40.1251 37.1451L40.1076 37.1601L40.0501 37.2151L39.8501 37.4001C39.6751 37.5526 39.4251 37.7676 39.0976 38.0201C38.1996 38.7095 37.2455 39.3225 36.2451 39.8526C32.9365 41.6077 29.2454 42.518 25.5001 42.5026C21.7548 42.518 18.0637 41.6077 14.7551 39.8526C13.7556 39.3224 12.8022 38.7095 11.9051 38.0201C11.5754 37.7655 11.2568 37.4969 10.9501 37.2151C10.8127 37.0939 10.7017 36.9456 10.6243 36.7796C10.5469 36.6135 10.5046 36.4332 10.5001 36.2501V25.0301L5.50009 22.1601V33.7501C5.50009 34.0816 5.3684 34.3995 5.13398 34.634C4.89956 34.8684 4.58161 35.0001 4.25009 35.0001C3.91857 35.0001 3.60063 34.8684 3.36621 34.634C3.13179 34.3995 3.00009 34.0816 3.00009 33.7501V20.0001C2.99993 19.7756 3.0602 19.5553 3.17457 19.3622C3.28894 19.1691 3.4532 19.0103 3.65009 18.9026L21.7651 8.50258ZM29.2351 31.4976C28.0985 32.1503 26.8107 32.4938 25.5001 32.4938C24.1894 32.4938 22.9017 32.1503 21.7651 31.4976L13.0001 26.4651V35.6926C13.9104 36.4398 14.8927 37.0947 15.9326 37.6476C18.1326 38.8226 21.3701 40.0001 25.5001 40.0001C28.8342 40.017 32.1208 39.2098 35.0676 37.6501C36.1077 37.0956 37.09 36.4391 38.0001 35.6901V26.4651L29.2351 31.4951V31.4976ZM27.9901 10.6726C27.2324 10.2374 26.3739 10.0085 25.5001 10.0085C24.6263 10.0085 23.7678 10.2374 23.0101 10.6726L6.76009 20.0001L23.0101 29.3301C23.7678 29.7652 24.6263 29.9942 25.5001 29.9942C26.3739 29.9942 27.2324 29.7652 27.9901 29.3301L44.2401 20.0001L27.9901 10.6701V10.6726Z" fill="white"/>
</svg>
