<svg width="51" height="50" viewBox="0 0 51 50" fill="none" xmlns="http://www.w3.org/2000/svg">
<path d="M25.4998 1C12.2448 1 1.49976 11.745 1.49976 25C1.49976 38.255 12.2448 49 25.4998 49C38.7548 49 49.4998 38.255 49.4998 25C49.4998 11.745 38.7548 1 25.4998 1ZM19.6248 34.9475H14.7648V19.3075H19.6248V34.9475ZM17.1648 17.3875C15.6298 17.3875 14.6373 16.3 14.6373 14.955C14.6373 13.5825 15.6598 12.5275 17.2273 12.5275C18.7948 12.5275 19.7548 13.5825 19.7848 14.955C19.7848 16.3 18.7948 17.3875 17.1648 17.3875ZM37.3748 34.9475H32.5148V26.28C32.5148 24.2625 31.8098 22.8925 30.0523 22.8925C28.7098 22.8925 27.9123 23.82 27.5598 24.7125C27.4298 25.03 27.3973 25.48 27.3973 25.9275V34.945H22.5348V24.295C22.5348 22.3425 22.4723 20.71 22.4073 19.305H26.6298L26.8523 21.4775H26.9498C27.5898 20.4575 29.1573 18.9525 31.7798 18.9525C34.9773 18.9525 37.3748 21.095 37.3748 25.7V34.9475Z" fill="#434343"/>
</svg>
