<svg width="64" height="64" viewBox="0 0 64 64" fill="none" xmlns="http://www.w3.org/2000/svg">
<path d="M49.9236 33.58C49.609 36.9844 48.3314 40.2288 46.2401 42.9336C44.1489 45.6383 41.3306 47.6916 38.115 48.8531C34.8995 50.0146 31.4196 50.2362 28.0826 49.4922C24.7457 48.7481 21.6896 47.0691 19.2721 44.6516C16.8545 42.234 15.1755 39.178 14.4314 35.841C13.6874 32.504 13.9091 29.0242 15.0706 25.8086C16.232 22.593 18.2853 19.7747 20.9901 17.6835C23.6948 15.5923 26.9392 14.3146 30.3436 14C28.3505 16.6965 27.3913 20.0189 27.6407 23.3628C27.8901 26.7068 29.3314 29.8501 31.7024 32.2212C34.0735 34.5923 37.2169 36.0336 40.5608 36.2829C43.9047 36.5323 47.2271 35.5732 49.9236 33.58V33.58Z" stroke="white" stroke-width="2" stroke-linecap="round" stroke-linejoin="round"/>
</svg>
