<svg width="51" height="50" viewBox="0 0 51 50" fill="none" xmlns="http://www.w3.org/2000/svg">
<path fill-rule="evenodd" clip-rule="evenodd" d="M29.6665 12.5001V8.33341H21.3332V12.5001H29.6665ZM8.83317 16.6667V39.5834H42.1665V16.6667H8.83317ZM42.1665 12.5001C44.479 12.5001 46.3332 14.3542 46.3332 16.6667V39.5834C46.3332 41.8959 44.479 43.7501 42.1665 43.7501H8.83317C6.52067 43.7501 4.6665 41.8959 4.6665 39.5834L4.68734 16.6667C4.68734 14.3542 6.52067 12.5001 8.83317 12.5001H17.1665V8.33341C17.1665 6.02091 19.0207 4.16675 21.3332 4.16675H29.6665C31.979 4.16675 33.8332 6.02091 33.8332 8.33341V12.5001H42.1665Z" fill="white"/>
</svg>
